<?xml version="1.0" encoding="UTF-8"?>
<svg id="Layer_1" xmlns="http://www.w3.org/2000/svg" xmlns:xlink="http://www.w3.org/1999/xlink" version="1.1" viewBox="0 0 400 100">
  <!-- Generator: Adobe Illustrator 29.8.4, SVG Export Plug-In . SVG Version: 2.1.1 Build 6)  -->
  <defs>
    <style>
      .st0 {
        fill: url(#linear-gradient);
      }

      .st1 {
        fill: #fff;
      }

      .st2 {
        fill: #151313;
        fill-rule: evenodd;
      }
    </style>
    <linearGradient id="linear-gradient" x1="63.26" y1="6.24" x2="151.24" y2="94.22" gradientUnits="userSpaceOnUse">
      <stop offset="0" stop-color="#92e067"/>
      <stop offset="1" stop-color="#2be3a7"/>
    </linearGradient>
  </defs>
  <rect class="st0" x="57.25" y=".23" width="100" height="100" rx="20.52" ry="20.52"/>
  <g id="Shape_3">
    <path class="st2" d="M71.22,14.12v18.82l53.13,53.29h18.94v-18.62L90.48,14.15l-19.26-.03ZM132.86,75.95h-4.01l-47.19-47.03v-4.49l4.17.16,47.03,47.03v4.33ZM94.91,76.43l-16.87-16.56-6.97,6.97,19.81,19.5h24.92l-9.6-9.91h-11.3ZM119.69,24.11l16.85,16.69,6.89-7.04-19.75-19.6h-24.81l10.11,9.95h10.72Z"/>
  </g>
  <g>
    <path class="st1" d="M174.5,98.6c-2.54-1.09-4.55-2.65-6.03-4.69-1.48-2.04-2.24-4.45-2.28-7.23h9.78c.13,1.87.79,3.35,1.99,4.43,1.19,1.09,2.84,1.63,4.92,1.63s3.8-.51,5.02-1.53c1.22-1.02,1.82-2.36,1.82-4.01,0-1.35-.41-2.45-1.24-3.32-.83-.87-1.86-1.55-3.1-2.05-1.24-.5-2.94-1.05-5.12-1.66-2.96-.87-5.36-1.73-7.2-2.57-1.85-.85-3.43-2.13-4.76-3.85-1.33-1.72-1.99-4.01-1.99-6.88,0-2.69.67-5.04,2.02-7.04,1.35-2,3.24-3.53,5.67-4.6,2.43-1.06,5.21-1.6,8.34-1.6,4.69,0,8.51,1.14,11.44,3.42s4.55,5.46,4.86,9.55h-10.04c-.09-1.56-.75-2.86-1.99-3.88-1.24-1.02-2.88-1.53-4.92-1.53-1.78,0-3.2.46-4.27,1.37-1.07.91-1.6,2.24-1.6,3.98,0,1.22.4,2.23,1.21,3.03.8.8,1.8,1.46,3,1.96,1.19.5,2.88,1.08,5.05,1.73,2.95.87,5.37,1.74,7.23,2.61,1.87.87,3.48,2.17,4.82,3.91,1.35,1.74,2.02,4.02,2.02,6.84,0,2.43-.63,4.69-1.89,6.78-1.26,2.09-3.11,3.75-5.54,4.99-2.43,1.24-5.32,1.86-8.67,1.86-3.17,0-6.03-.54-8.57-1.63Z"/>
    <path class="st1" d="M260.01,67.22c2.71,2.72,4.07,6.51,4.07,11.37v21.18h-9.12v-19.94c0-2.82-.72-4.99-2.15-6.49-1.43-1.5-3.39-2.25-5.87-2.25s-4.44.75-5.9,2.25c-1.46,1.5-2.18,3.66-2.18,6.49v19.94h-9.12v-19.94c0-2.82-.72-4.99-2.15-6.49-1.43-1.5-3.39-2.25-5.87-2.25s-4.51.75-5.96,2.25c-1.46,1.5-2.18,3.66-2.18,6.49v19.94h-9.12v-36.11h9.12v4.37c1.17-1.52,2.68-2.71,4.53-3.58,1.85-.87,3.88-1.3,6.09-1.3,2.82,0,5.34.6,7.56,1.79,2.22,1.2,3.93,2.9,5.15,5.12,1.17-2.09,2.88-3.76,5.12-5.02,2.24-1.26,4.66-1.89,7.27-1.89,4.43,0,8.01,1.36,10.72,4.07Z"/>
    <path class="st1" d="M270.76,57.83c-1.07-1.02-1.6-2.29-1.6-3.81s.53-2.79,1.6-3.81c1.06-1.02,2.4-1.53,4.01-1.53s2.94.51,4.01,1.53c1.06,1.02,1.6,2.29,1.6,3.81s-.53,2.79-1.6,3.81c-1.07,1.02-2.4,1.53-4.01,1.53s-2.94-.51-4.01-1.53ZM279.27,63.66v36.11h-9.12v-36.11h9.12Z"/>
    <path class="st1" d="M296.28,71.16v17.47c0,1.22.29,2.1.88,2.64.59.54,1.57.81,2.97.81h4.24v7.69h-5.74c-7.69,0-11.54-3.74-11.54-11.21v-17.4h-4.3v-7.5h4.3v-8.93h9.19v8.93h8.08v7.5h-8.08Z"/>
    <path class="st1" d="M335.97,64.93c2.13,1.2,3.79,2.96,4.99,5.28,1.19,2.33,1.79,5.12,1.79,8.38v21.18h-9.12v-19.94c0-2.87-.72-5.07-2.15-6.62-1.43-1.54-3.39-2.31-5.87-2.31s-4.51.77-5.96,2.31c-1.46,1.54-2.18,3.75-2.18,6.62v19.94h-9.12v-48.23h9.12v16.62c1.17-1.56,2.74-2.79,4.69-3.68,1.96-.89,4.13-1.34,6.52-1.34,2.74,0,5.17.6,7.3,1.79Z"/>
  </g>
  <g>
    <path class="st1" d="M194.49,30.91h-18.62l-3.57,9.72h-4.33L182.89.23h4.63l14.87,40.41h-4.33l-3.57-9.72ZM193.26,27.52l-8.08-22.14-8.08,22.14h16.16Z"/>
    <path class="st1" d="M230.21,10.3c2.23,1.41,3.83,3.18,4.8,5.33v-6.97h4.1v32.79c0,2.93-.63,5.52-1.9,7.79-1.27,2.26-3.04,4.01-5.3,5.24-2.26,1.23-4.84,1.84-7.73,1.84-4.1,0-7.51-.98-10.22-2.93-2.71-1.95-4.4-4.61-5.07-7.96h4.04c.7,2.22,2.04,4,4.01,5.33,1.97,1.33,4.38,1.99,7.23,1.99,2.07,0,3.92-.44,5.56-1.32,1.64-.88,2.93-2.18,3.86-3.89.94-1.72,1.41-3.75,1.41-6.09v-7.91c-1.02,2.19-2.63,3.99-4.83,5.42-2.21,1.43-4.81,2.14-7.82,2.14s-5.55-.68-7.88-2.05c-2.32-1.37-4.14-3.3-5.45-5.8-1.31-2.5-1.96-5.39-1.96-8.67s.65-6.16,1.96-8.64c1.31-2.48,3.12-4.39,5.45-5.74,2.32-1.35,4.95-2.02,7.88-2.02s5.62.7,7.85,2.11ZM233.43,17.85c-1.05-1.95-2.49-3.46-4.3-4.51s-3.82-1.58-6-1.58-4.29.51-6.09,1.52c-1.8,1.02-3.21,2.49-4.25,4.42-1.03,1.93-1.55,4.23-1.55,6.88s.52,4.91,1.55,6.88c1.03,1.97,2.45,3.48,4.25,4.51,1.8,1.04,3.83,1.55,6.09,1.55s4.19-.53,6-1.58c1.82-1.05,3.25-2.56,4.3-4.51,1.05-1.95,1.58-4.22,1.58-6.79s-.53-4.84-1.58-6.79Z"/>
    <path class="st1" d="M277.29,26.23h-26.53c.12,2.42.7,4.49,1.76,6.21,1.05,1.72,2.44,3.02,4.16,3.89,1.72.88,3.59,1.32,5.62,1.32,2.65,0,4.89-.64,6.7-1.93s3.02-3.02,3.6-5.21h4.33c-.78,3.12-2.45,5.67-5.01,7.64-2.56,1.97-5.77,2.96-9.63,2.96-3.01,0-5.7-.67-8.08-2.02-2.38-1.35-4.25-3.26-5.59-5.74-1.35-2.48-2.02-5.38-2.02-8.7s.66-6.23,1.99-8.73c1.33-2.5,3.18-4.41,5.56-5.74,2.38-1.33,5.09-1.99,8.14-1.99s5.71.66,7.99,1.99c2.28,1.33,4.04,3.11,5.27,5.36,1.23,2.25,1.84,4.73,1.84,7.47,0,1.41-.04,2.48-.12,3.22ZM271.81,16.8c-1-1.68-2.35-2.95-4.07-3.81-1.72-.86-3.59-1.29-5.62-1.29-3.04,0-5.64.98-7.79,2.93-2.15,1.95-3.34,4.7-3.57,8.26h22.49c.04-2.38-.44-4.41-1.43-6.09Z"/>
    <path class="st1" d="M309.26,11.62c2.42,2.36,3.63,5.79,3.63,10.28v18.74h-4.04v-18.27c0-3.47-.87-6.13-2.61-7.96-1.74-1.83-4.11-2.75-7.11-2.75s-5.54.98-7.38,2.93c-1.84,1.95-2.75,4.82-2.75,8.61v17.45h-4.1V8.66h4.1v5.45c1.01-1.95,2.48-3.44,4.39-4.48,1.91-1.03,4.08-1.55,6.5-1.55,3.83,0,6.95,1.18,9.37,3.54Z"/>
    <path class="st1" d="M327.3,12.11v19.85c0,1.95.37,3.3,1.11,4.04.74.74,2.05,1.11,3.92,1.11h3.75v3.51h-4.39c-2.89,0-5.04-.67-6.44-2.02-1.41-1.35-2.11-3.56-2.11-6.65V12.11h-4.45v-3.45h4.45V.64h4.16v8.02h8.78v3.45h-8.78Z"/>
  </g>
</svg>